<?xml version="1.0" encoding="UTF-8" standalone="no"?>
<!DOCTYPE svg PUBLIC "-//W3C//DTD SVG 1.1//EN" "http://www.w3.org/Graphics/SVG/1.1/DTD/svg11.dtd">
<svg width="100%" height="100%" viewBox="0 0 20 24" version="1.1" xmlns="http://www.w3.org/2000/svg" xmlns:xlink="http://www.w3.org/1999/xlink" xml:space="preserve" xmlns:serif="http://www.serif.com/" style="fill-rule:evenodd;clip-rule:evenodd;stroke-linejoin:round;stroke-miterlimit:1.41421;">
    <g transform="matrix(1,0,0,1,-98,-8)">
        <g id="Calendar" transform="matrix(0.552632,0,0,0.552632,63.7368,2.36842)">
            <g>
                <path d="M62.19,24.667L98.19,24.667C98.19,24.667 98.19,39.38 98.19,46.381C98.19,47.341 97.809,48.261 97.13,48.94C96.452,49.619 95.531,50 94.571,50C87.646,50 72.593,50 65.646,50C64.682,50 63.757,49.615 63.078,48.93C62.398,48.246 62.02,47.318 62.027,46.354C62.08,39.342 62.19,24.667 62.19,24.667ZM83.714,39.143L76.476,39.143L76.476,46.381L83.714,46.381L83.714,39.143ZM72.857,39.143L65.619,39.143L65.619,46.381L72.857,46.381L72.857,39.143ZM94.571,39.143L87.333,39.143L87.333,46.381L94.571,46.381L94.571,39.143ZM72.857,28.286L65.619,28.286L65.619,35.524L72.857,35.524L72.857,28.286ZM94.571,28.286L87.333,28.286L87.333,35.524L94.571,35.524L94.571,28.286ZM83.714,28.286L76.476,28.286L76.476,35.524L83.714,35.524L83.714,28.286Z" style="fill:rgb(116,121,127);"/>
                <path d="M62,21.048C62,21.048 62,19.294 62,17.536C62,15.563 63.562,13.945 65.534,13.876C66.569,13.84 67.429,13.81 67.429,13.81C67.429,13.81 67.429,14.714 67.429,15.619C67.429,16.618 68.239,17.429 69.238,17.429C70.343,17.429 71.752,17.429 72.857,17.429C73.857,17.429 74.667,16.618 74.667,15.619C74.667,14.714 74.667,13.81 74.667,13.81L85.524,13.81C85.524,13.81 85.524,14.714 85.524,15.619C85.524,16.618 86.334,17.429 87.333,17.429C88.439,17.429 89.847,17.429 90.952,17.429C91.952,17.429 92.762,16.618 92.762,15.619C92.762,14.714 92.762,13.81 92.762,13.81C92.762,13.81 93.577,13.839 94.565,13.875C96.496,13.945 98.041,15.504 98.093,17.436C98.141,19.227 98.19,21.048 98.19,21.048L62,21.048Z" style="fill:rgb(116,121,127);"/>
                <g transform="matrix(1.80952,0,0,1,-61.0476,-2)">
                    <rect x="72" y="14" width="2" height="4" style="fill:rgb(116,121,127);"/>
                </g>
                <g transform="matrix(1.80952,0,0,1,-68.2857,-2)">
                    <rect x="86" y="14" width="2" height="4" style="fill:rgb(116,121,127);"/>
                </g>
            </g>
        </g>
    </g>
</svg>
